<?xml version="1.0" encoding="UTF-8" standalone="no"?>
<!-- Created with Inkscape (http://www.inkscape.org/) -->

<svg
   width="79.110405mm"
   height="5.0270834mm"
   viewBox="0 0 79.110405 5.0270834"
   version="1.1"
   id="svg1"
   xml:space="preserve"
   xmlns="http://www.w3.org/2000/svg"
   xmlns:svg="http://www.w3.org/2000/svg"><defs
     id="defs1" /><g
     id="layer1"
     transform="translate(-59.25103,-50.205722)"><g
       style="fill:none"
       id="g1"
       transform="matrix(0.26458333,0,0,0.26458333,59.118744,50.20572)"><rect
         x="1"
         y="0.5"
         width="298"
         height="18"
         rx="9"
         stroke="#f01f87"
         id="rect1" /></g><g
       style="fill:none"
       id="g2"
       transform="matrix(0.52018216,0,0,0.24987542,59.054454,50.359433)"><path
         d="m 10,0.5 h 13 c 2.464819,0 6.120894,-0.90157423 7.523843,1.4426759 C 31.947739,4.3219262 32,6.9942396 32,9.5 32,12.007626 31.764375,14.613479 30.289372,17.060944 28.883147,19.394285 25.462974,18.5 23,18.5 H 10 C 7.6023595,18.5 4.9993425,18.853579 3.386284,17.325074 1.6553031,15.684829 1,12.07294 1,9.5 1,6.828887 1.3475715,2.8666005 3.195578,1.2183224 4.7864478,-0.20060969 7.700553,0.5 10,0.5 Z"
         fill="#f01f87"
         stroke="#f01f87"
         id="path1" /></g></g></svg>
